<?xml version="1.0" encoding="UTF-8"?>
<svg version="1.1" xmlns="http://www.w3.org/2000/svg" width="512" height="512">
<path d="M0 0 C1.14805115 -0.01043099 2.29610229 -0.02086198 3.47894287 -0.03160906 C5.37171967 -0.01822473 5.37171967 -0.01822473 7.30273438 -0.00457001 C8.65627718 -0.00917791 10.00981498 -0.01553008 11.36334229 -0.02347898 C15.08643439 -0.0402111 18.80911753 -0.03190862 22.5322113 -0.01953411 C26.54591677 -0.01050169 30.55955081 -0.02444433 34.57324219 -0.0354538 C42.4374916 -0.05326301 50.30158852 -0.04938838 58.16584396 -0.03780323 C64.5558879 -0.02877861 70.94588902 -0.0275407 77.3359375 -0.0318985 C78.24455914 -0.03251143 79.15318077 -0.03312436 80.0893364 -0.03375587 C81.93504335 -0.03503474 83.78075029 -0.03633159 85.62645721 -0.03764623 C102.94356769 -0.04905907 120.26059353 -0.03592731 137.57769012 -0.01444477 C152.44441393 0.00342685 167.31101282 0.00032294 182.17773438 -0.01811981 C199.43184467 -0.03951412 216.68588074 -0.04796037 233.94000244 -0.03567076 C235.77901203 -0.03439653 237.61802164 -0.03313905 239.45703125 -0.0318985 C240.36191662 -0.0312814 241.26680199 -0.03066429 242.19910812 -0.03002849 C248.58327767 -0.02657127 254.96740023 -0.03241195 261.3515625 -0.04181671 C269.12917609 -0.0530221 276.90662815 -0.05002751 284.68422318 -0.02869374 C288.65435936 -0.01816353 292.62422601 -0.01409475 296.59436035 -0.02729034 C300.22636263 -0.03917973 303.85784466 -0.03270964 307.4897995 -0.01138014 C309.43120875 -0.00477095 311.37265391 -0.0178811 313.31402588 -0.03160906 C315.0361026 -0.01596257 315.0361026 -0.01596257 316.79296875 0 C317.78566772 0.00064941 318.7783667 0.00129882 319.80114746 0.00196791 C323.12611438 0.64432277 324.31809035 1.8832769 326.39648438 4.50336456 C326.89984894 6.91750908 326.89984894 6.91750908 326.90441895 9.65775299 C326.92133789 11.22120705 326.92133789 11.22120705 326.93859863 12.81624603 C326.92645325 14.52414558 326.92645325 14.52414558 326.9140625 16.26654816 C326.92457642 18.07247185 326.92457642 18.07247185 326.93530273 19.91487885 C326.9499054 23.22008479 326.94645459 26.52429038 326.93378639 29.82944059 C326.92362431 33.30919156 326.93306476 36.78890113 326.93933105 40.26865387 C326.9466156 46.13147323 326.93701697 51.9940914 326.91796875 57.85688019 C326.89638089 64.57770961 326.90311442 71.29805015 326.92527437 78.0188669 C326.94362617 83.82225744 326.94588639 89.62550341 326.9355197 95.42891371 C326.92936806 98.87925063 326.92820893 102.32936097 326.94166565 105.77968216 C327.04950263 146.15528438 317.47360337 184.75730666 291.39648438 216.50336456 C290.9360751 217.16002057 290.47566582 217.81667657 290.00130475 218.49323124 C285.81016937 224.03636171 285.81016937 224.03636171 282.10721946 225.2596103 C279.39105689 225.56063643 276.77008997 225.61328962 274.037323 225.57979584 C273.00737563 225.59862585 271.97742827 225.61745587 270.91627038 225.6368565 C267.47130423 225.6897639 264.02883065 225.68563401 260.58349609 225.68134308 C258.1109422 225.70692324 255.63842024 225.73576797 253.16593933 225.76763153 C247.14977893 225.83479022 241.134595 225.86363068 235.118156 225.87155557 C230.22417745 225.87810104 225.33040186 225.89693227 220.43649673 225.92433739 C206.54321909 226.00051766 192.65043243 226.04206512 178.75694464 226.04089058 C177.63443966 226.04080519 177.63443966 226.04080519 176.48925781 226.04071808 C175.74000082 226.04065334 174.99074383 226.04058861 174.21878208 226.04052191 C162.08615328 226.04162458 149.95571334 226.12599753 137.82375394 226.24804617 C125.34911786 226.37254103 112.8755527 226.43310508 100.40028012 226.42823166 C93.4030656 226.42682793 86.40823231 226.45147295 79.41158676 226.54529762 C72.82603126 226.63309658 66.24454227 226.63212861 59.65839577 226.57254219 C57.24815569 226.56447458 54.83761232 226.58518769 52.42792702 226.63752365 C34.76513323 226.99658997 34.76513323 226.99658997 29.17316675 222.85782886 C25.24505262 218.92539576 22.31146179 214.50341736 19.60781312 209.66841781 C18.07574136 206.93008856 16.37476052 204.32064498 14.6599406 201.6944533 C2.43792374 182.4850147 -4.78293261 160.83405528 -8.60351562 138.50336456 C-8.77281586 137.55742432 -8.94211609 136.61148407 -9.11654663 135.63687897 C-9.88750848 130.15565431 -9.76766854 124.63839671 -9.78051758 119.11396027 C-9.78708878 117.88065979 -9.79365997 116.64735931 -9.8004303 115.3766861 C-9.82008361 111.31083679 -9.83181007 107.24502667 -9.84179688 103.17914581 C-9.84584804 101.77538471 -9.84996507 100.3716238 -9.85414696 98.96786308 C-9.87315648 92.37911255 -9.88740361 85.790373 -9.89575893 79.20160037 C-9.90555506 71.60378181 -9.93195363 64.00625273 -9.97225982 56.40853626 C-10.00239299 50.52642549 -10.01722459 44.64439797 -10.02053994 38.7622115 C-10.02289102 35.25207979 -10.03186052 31.74225891 -10.05700111 28.23221016 C-10.08455601 24.32290644 -10.08045933 20.41398754 -10.07348633 16.50458527 C-10.08629639 15.34241989 -10.09910645 14.18025452 -10.11230469 12.98287201 C-10.10536087 11.91889191 -10.09841705 10.8549118 -10.09126282 9.75868988 C-10.09365117 8.83492711 -10.09603952 7.91116434 -10.09850025 6.95940876 C-8.97475959 1.38356545 -5.24287865 0.00342982 0 0 Z M41.22851562 91.00727081 C38.67889808 94.48105677 38.83699501 97.61141016 38.95898438 101.75336456 C38.97437256 102.55330841 38.98976074 103.35325226 39.00561523 104.17743683 C40.05184653 137.15816732 56.94473518 164.09090858 79.66992188 186.90961456 C82.20521684 189.24988684 83.86304453 190.44661564 87.33398438 190.81586456 C90.76528166 190.46573219 92.05914656 190.01383851 94.39648438 187.50336456 C95.48453584 185.14674196 95.48453584 185.14674196 95.39648438 182.50336456 C93.5266883 178.82275651 91.45416037 176.46785363 88.27148438 173.87836456 C68.74354292 156.94570868 57.23737896 131.83464575 55.27148438 106.31586456 C55.22032471 105.43108429 55.16916504 104.54630402 55.11645508 103.63471222 C54.78999934 98.59948209 54.19436838 94.86722841 51.39648438 90.50336456 C47.78705035 88.69864755 44.56057354 88.69584325 41.22851562 91.00727081 Z " fill="#FEAB00" transform="translate(41.603515625,183.49663543701172)"/>
<path d="M0 0 C1.14805115 -0.01043099 2.29610229 -0.02086198 3.47894287 -0.03160906 C5.37171967 -0.01822473 5.37171967 -0.01822473 7.30273438 -0.00457001 C8.65627718 -0.00917791 10.00981498 -0.01553008 11.36334229 -0.02347898 C15.08643439 -0.0402111 18.80911753 -0.03190862 22.5322113 -0.01953411 C26.54591677 -0.01050169 30.55955081 -0.02444433 34.57324219 -0.0354538 C42.4374916 -0.05326301 50.30158852 -0.04938838 58.16584396 -0.03780323 C64.5558879 -0.02877861 70.94588902 -0.0275407 77.3359375 -0.0318985 C78.24455914 -0.03251143 79.15318077 -0.03312436 80.0893364 -0.03375587 C81.93504335 -0.03503474 83.78075029 -0.03633159 85.62645721 -0.03764623 C102.94356769 -0.04905907 120.26059353 -0.03592731 137.57769012 -0.01444477 C152.44441393 0.00342685 167.31101282 0.00032294 182.17773438 -0.01811981 C199.43184467 -0.03951412 216.68588074 -0.04796037 233.94000244 -0.03567076 C235.77901203 -0.03439653 237.61802164 -0.03313905 239.45703125 -0.0318985 C240.36191662 -0.0312814 241.26680199 -0.03066429 242.19910812 -0.03002849 C248.58327767 -0.02657127 254.96740023 -0.03241195 261.3515625 -0.04181671 C269.12917609 -0.0530221 276.90662815 -0.05002751 284.68422318 -0.02869374 C288.65435936 -0.01816353 292.62422601 -0.01409475 296.59436035 -0.02729034 C300.22636263 -0.03917973 303.85784466 -0.03270964 307.4897995 -0.01138014 C309.43120875 -0.00477095 311.37265391 -0.0178811 313.31402588 -0.03160906 C315.0361026 -0.01596257 315.0361026 -0.01596257 316.79296875 0 C317.78566772 0.00064941 318.7783667 0.00129882 319.80114746 0.00196791 C323.15900321 0.65067661 324.34149587 1.81088778 326.39648438 4.50336456 C327.08526125 9.21402037 327.05757049 12.06759055 324.30664062 15.99555206 C323.3780721 17.14022139 322.42770803 18.26747219 321.45898438 19.37836456 C320.95898926 19.97987335 320.45899414 20.58138214 319.94384766 21.20111847 C318.44815727 22.98691097 316.9263318 24.74681647 315.39648438 26.50336456 C314.59855469 27.44180206 313.800625 28.38023956 312.97851562 29.34711456 C300.46773104 43.69576662 287.0611787 52.40132524 268.39648438 56.50336456 C265.4802387 56.60625787 262.58752825 56.65552292 259.67108154 56.65726471 C258.78057138 56.66164696 257.89006121 56.66602922 256.97256589 56.67054427 C253.98203397 56.68392174 250.99153151 56.69010893 248.00097656 56.69623566 C245.85888537 56.70413781 243.7167955 56.71240683 241.57470703 56.72101593 C234.53093741 56.74723545 227.48716186 56.76254922 220.44335938 56.77680206 C218.0155563 56.78216285 215.58775326 56.78754036 213.15995026 56.79293442 C203.05451853 56.81456812 192.9490884 56.83330138 182.84363937 56.84455681 C168.38220001 56.86077125 153.9210304 56.8938828 139.45969272 56.95095766 C129.28195154 56.98974899 119.10428221 57.00920071 108.92646909 57.01447737 C102.85385912 57.01811984 96.78153686 57.03002269 90.70900726 57.06258011 C84.98632317 57.09282033 79.26409843 57.09891579 73.54135132 57.08719635 C71.45172659 57.08697691 69.36207957 57.09517345 67.2725296 57.11285019 C44.01319509 57.29874814 25.53747158 51.31271345 8.52148438 34.94086456 C-9.6450492 16.4326407 -9.6450492 16.4326407 -10.06445312 6.53852081 C-8.85873165 1.21495395 -4.93934678 0.00323125 0 0 Z " fill="#FEAC00" transform="translate(41.603515625,423.4966354370117)"/>
<path d="M0 0 C0.68919551 -0.00538554 1.37839101 -0.01077108 2.08847123 -0.01631981 C4.37926054 -0.03053561 6.66946678 -0.023512 8.96028137 -0.01637268 C10.60997988 -0.02207939 12.25967443 -0.02904482 13.90936279 -0.03717041 C18.37607374 -0.05507794 22.842588 -0.05393869 27.30932403 -0.04822803 C31.0397903 -0.04513451 34.77021888 -0.05123002 38.50067979 -0.05726677 C47.29811806 -0.07130075 56.09545918 -0.06975842 64.89289856 -0.05836487 C73.97087927 -0.0468679 83.0485651 -0.06098831 92.12650698 -0.08776134 C99.92369487 -0.10989662 107.72079002 -0.11656113 115.5180071 -0.11068493 C120.17385223 -0.10731097 124.82950805 -0.10976025 129.48532677 -0.12693596 C133.85949847 -0.14236985 138.23323149 -0.13848946 142.60738564 -0.11963081 C144.21343017 -0.11593589 145.81950698 -0.11907965 147.42552185 -0.1295166 C149.61597807 -0.1426666 151.80496881 -0.131235 153.99536133 -0.11352539 C155.2214722 -0.11331611 156.44758307 -0.11310682 157.71084881 -0.1128912 C161.39263007 0.48232254 162.56493496 1.46718688 164.8072052 4.38768005 C165.3384552 6.38768005 165.3384552 6.38768005 165.3072052 8.38768005 C165.32267395 9.37768005 165.32267395 9.37768005 165.3384552 10.38768005 C164.55378416 13.34173573 163.17711142 14.48443583 160.8072052 16.38768005 C157.83578777 16.8871088 157.83578777 16.8871088 154.29907227 16.88647461 C153.64722515 16.89185916 152.99537803 16.89724372 152.32377797 16.90279144 C150.1410312 16.91605872 147.95940984 16.90091969 145.77668762 16.88597107 C144.21111535 16.88979435 142.64554658 16.89541348 141.07998657 16.9026947 C137.70885381 16.91465074 134.33803246 16.91415175 130.96689415 16.90410042 C125.63395346 16.88854539 120.30133285 16.90221437 114.96841431 16.9201355 C104.6066923 16.9509703 94.24506782 16.95245656 83.88330841 16.95048523 C70.70496738 16.94909296 57.52670174 16.95946704 44.34841615 16.99906296 C39.0498681 17.01398395 33.75160327 17.01373552 28.45305097 17.00158513 C25.15199764 16.99686678 21.85105218 17.0044057 18.5500164 17.01512909 C17.02263561 17.01753078 15.4952366 17.01481563 13.96787643 17.00652122 C11.87706395 16.99584891 9.78707579 17.00368937 7.69628906 17.01586914 C6.52804187 17.01528283 5.35979467 17.01469652 4.15614605 17.01409245 C-0.53264461 17.5371456 -4.51106305 18.92294595 -8.1302948 22.07518005 C-9.70809505 25.50921589 -9.84104714 28.72396175 -9.1927948 32.38768005 C-7.32673117 35.68917725 -6.02973981 37.03553692 -2.53599548 38.50552368 C1.25846002 39.50675077 4.782085 39.65836095 8.67341614 39.62718201 C9.43851501 39.62919617 10.20361389 39.63121033 10.99189758 39.63328552 C12.64513031 39.63681701 14.29837658 39.63608131 15.95160675 39.63150978 C18.57617602 39.62588719 21.20030813 39.63512411 23.82484436 39.64871216 C31.28415387 39.68571111 38.74331416 39.70441189 46.20271301 39.69309998 C50.77455696 39.68721953 55.34578501 39.70565091 59.91750336 39.73898888 C61.65085884 39.74689736 63.38428227 39.74572822 65.11762238 39.73496437 C75.62974596 39.67250599 84.83271704 39.79599927 92.93312073 47.37738037 C99.44431682 54.15352363 101.37352856 61.00492413 101.28767395 70.31907654 C100.98866358 78.84185578 98.08336047 84.55697608 91.9322052 90.32518005 C86.4277609 95.01201861 80.90472792 96.76096017 73.772995 96.77294922 C73.10083926 96.77818491 72.42868353 96.78342061 71.73615944 96.78881496 C69.50298098 96.80268936 67.27038787 96.79549774 65.03718567 96.78831482 C63.42851756 96.79406181 61.81985377 96.80114642 60.2111969 96.8094635 C56.7566872 96.82454183 53.30233171 96.83035389 49.84778976 96.82893562 C44.38496597 96.82689813 38.92234898 96.84649318 33.45957947 96.86911011 C22.85290492 96.91003993 12.24624683 96.92868276 1.63951111 96.94528198 C-11.8689147 96.96765547 -25.37729263 97.00116372 -38.88564003 97.05248111 C-44.3159749 97.07240002 -49.74620114 97.08198251 -55.17657113 97.08343327 C-58.55290026 97.08618334 -61.92916934 97.09701248 -65.30547333 97.10994339 C-66.8707791 97.11422307 -68.43609853 97.11508307 -70.00140762 97.11226845 C-72.13859443 97.10886631 -74.2754024 97.11765296 -76.41255188 97.12939453 C-77.60824358 97.13102883 -78.80393528 97.13266314 -80.03586006 97.13434696 C-83.19803283 97.38810039 -85.38746505 97.9277474 -88.1927948 99.38768005 C-90.37672504 103.13114887 -90.44353511 106.59111744 -90.4662323 110.8603363 C-90.4868573 112.0894574 -90.5074823 113.31857849 -90.5287323 114.58494568 C-90.55481276 117.16560744 -90.5730187 119.74636059 -90.5834198 122.32713318 C-90.60662292 123.55496521 -90.62982605 124.78279724 -90.6537323 126.0478363 C-90.66605896 127.72825012 -90.66605896 127.72825012 -90.67863464 129.44261169 C-91.30148313 133.01023814 -92.37741235 134.18395144 -95.1927948 136.38768005 C-97.1927948 136.91893005 -97.1927948 136.91893005 -99.1927948 136.88768005 C-99.8527948 136.89799255 -100.5127948 136.90830505 -101.1927948 136.91893005 C-104.19476783 136.12153097 -105.28823416 134.83514769 -107.1927948 132.38768005 C-107.59147536 129.66085547 -107.75468021 127.3456348 -107.7240448 124.62205505 C-107.7278717 123.86982666 -107.73169861 123.11759827 -107.73564148 122.34257507 C-107.73835914 120.75229046 -107.73100795 119.16196103 -107.71427917 117.57176208 C-107.69298389 115.15910293 -107.71401998 112.74946195 -107.7396698 110.3368988 C-107.75765309 101.20008013 -107.51654633 94.32174243 -101.22795105 87.14549255 C-100.57697449 86.60666443 -99.92599792 86.0678363 -99.2552948 85.51268005 C-98.60689636 84.95838318 -97.95849792 84.4040863 -97.29045105 83.83299255 C-92.76586112 80.71549111 -88.89432557 80.13688145 -83.45051575 80.12939453 C-82.78556355 80.12571883 -82.12061135 80.12204312 -81.43550909 80.11825603 C-79.21471433 80.10830226 -76.99417126 80.11242154 -74.77336121 80.11643982 C-73.17808771 80.11205124 -71.58281651 80.1067486 -69.98754883 80.1006012 C-66.55540694 80.08911014 -63.12332673 80.08364243 -59.69116592 80.0827198 C-54.261588 80.0807775 -48.83213741 80.06271539 -43.40260315 80.04196167 C-29.91597488 79.99279464 -16.42931205 79.96189576 -2.94261169 79.94065857 C7.5381749 79.92412935 18.01885227 79.90129752 28.49956572 79.85763782 C33.89425018 79.83587947 39.28872706 79.82780194 44.68345237 79.83003056 C48.04352378 79.82836121 51.40346021 79.81429663 54.76348305 79.79681778 C56.31826735 79.79122899 57.87307977 79.79072316 59.42786598 79.79575539 C61.55587072 79.80191932 63.6830277 79.78962586 65.81095886 79.77294922 C67.00003027 79.77093789 68.18910168 79.76892656 69.41420555 79.76685429 C74.12480309 79.24043596 78.1072045 77.86832583 81.7447052 74.70018005 C83.32250545 71.26614421 83.45545754 68.05139835 82.8072052 64.38768005 C80.94114157 61.08618286 79.64415021 59.73982319 76.15040588 58.26983643 C72.35595038 57.26860933 68.8323254 57.11699915 64.94099426 57.1481781 C64.17589539 57.14616394 63.41079651 57.14414978 62.62251282 57.14207458 C60.96928009 57.1385431 59.31603382 57.1392788 57.66280365 57.14385033 C55.03823438 57.14947292 52.41410227 57.140236 49.78956604 57.12664795 C42.33025653 57.089649 34.87109624 57.07094822 27.41169739 57.08226013 C22.83985344 57.08814057 18.26862539 57.06970919 13.69690704 57.03637123 C11.96355156 57.02846275 10.23012813 57.02963189 8.49678802 57.04039574 C-2.01533556 57.10285412 -11.21830664 56.97936083 -19.31871033 49.39797974 C-25.82990642 42.62183647 -27.75911816 35.77043598 -27.67326355 26.45628357 C-27.37425318 17.93350432 -24.46895007 12.21838402 -18.3177948 6.45018005 C-12.75043577 1.70977184 -7.20850942 0.01427259 0 0 Z " fill="#FEA100" transform="translate(211.1927947998047,31.612319946289063)"/>
<path d="M0 0 C10.16214085 -0.09053442 20.32401182 -0.16385034 30.48646545 -0.20724869 C35.20581095 -0.22808256 39.92486511 -0.25632305 44.64404297 -0.30175781 C49.20225876 -0.34536595 53.76019514 -0.36916868 58.31860352 -0.37950897 C60.05367427 -0.38687356 61.78873053 -0.40125483 63.52368164 -0.42292023 C65.96273291 -0.45215412 68.40064419 -0.45594781 70.83984375 -0.45410156 C71.90476295 -0.47567322 71.90476295 -0.47567322 72.99119568 -0.49768066 C79.40702315 -0.44547165 84.47112173 1.78392723 89.2421875 5.96484375 C89.78101563 6.61582031 90.31984375 7.26679688 90.875 7.9375 C91.42929687 8.58589844 91.98359375 9.23429688 92.5546875 9.90234375 C95.22907077 13.78381352 96.24832011 17.3079887 96.29052734 21.99536133 C96.30328705 22.96439896 96.31604675 23.93343658 96.32919312 24.93183899 C96.33141876 25.97140244 96.33364441 27.01096588 96.3359375 28.08203125 C96.3459227 29.71249641 96.3459227 29.71249641 96.35610962 31.37590027 C96.36623004 33.67986362 96.37092683 35.98385624 96.37060547 38.2878418 C96.37493712 41.76207021 96.41114887 45.23498412 96.44921875 48.70898438 C96.58723653 75.96425017 89.16888209 99.54154515 69.80078125 119.3203125 C63.26945436 125.56925288 56.12456037 130.13665232 48.125 134.25 C47.51374268 134.56743164 46.90248535 134.88486328 46.27270508 135.21191406 C35.03102529 140.73618094 22.60086179 143.13534097 10.4309082 145.71972656 C7.90863722 146.25613825 5.38885056 146.8032596 2.86914062 147.3515625 C1.25534299 147.69854353 -0.35858469 148.04492045 -1.97265625 148.390625 C-2.72055923 148.55306702 -3.46846222 148.71550903 -4.23902893 148.88287354 C-7.6004105 149.59150208 -10.54491752 150 -14 150 C-13.56442084 148.52026655 -13.12639904 147.04125215 -12.6875 145.5625 C-12.44386719 144.73878906 -12.20023437 143.91507813 -11.94921875 143.06640625 C-11.63597656 142.05449219 -11.32273437 141.04257812 -11 140 C-10.94585937 139.27184082 -10.89171875 138.54368164 -10.8359375 137.79345703 C-10.39358573 134.83735624 -9.90218396 133.33698457 -8 131 C-2.39165209 128.71091942 3.42627199 127.77519885 9.375 126.75 C12.57379589 126.15822598 15.76810576 125.54497702 18.9609375 124.921875 C19.7386853 124.77155823 20.51643311 124.62124146 21.31774902 124.46636963 C38.83195236 120.93658688 54.24276743 111.91267264 64.9296875 97.375 C76.66850292 79.64082392 79.18777862 62.06695754 79.18530273 41.20019531 C79.18751882 39.10722354 79.20583586 37.01475616 79.22460938 34.921875 C79.22753923 33.5755226 79.22952675 32.22916775 79.23046875 30.8828125 C79.23457764 29.68027832 79.23868652 28.47774414 79.24291992 27.23876953 C78.99704084 23.96054658 78.67296185 21.82864905 77 19 C72.93771288 16.87177545 69.36163466 16.7288438 64.82299805 16.68115234 C64.12001083 16.67110672 63.41702362 16.6610611 62.69273376 16.65071106 C60.38240331 16.61996192 58.07218829 16.60286728 55.76171875 16.5859375 C54.15459709 16.56721916 52.54748519 16.54764525 50.94038391 16.5272522 C46.72038535 16.47599519 42.50035495 16.43633516 38.2802124 16.39910889 C33.96993169 16.35902883 29.6597827 16.30795477 25.34960938 16.2578125 C16.89982306 16.16112932 8.44998207 16.07771696 0 16 C0 10.72 0 5.44 0 0 Z " fill="#FD6500" transform="translate(384,216)"/>
</svg>
